
<svg width="1287px" height="362px" viewBox="0 0 1287 362" version="1.1" xmlns="http://www.w3.org/2000/svg" xmlns:xlink="http://www.w3.org/1999/xlink">
    <!-- Generator: Sketch 44.1 (41455) - http://www.bohemiancoding.com/sketch -->
    <desc>Created with Sketch.</desc>
    <defs></defs>
    <g id="Big-SVG" stroke="none" stroke-width="1" fill="none" fill-rule="evenodd">
        <g id="Group-2" fill-rule="nonzero" fill="#FFFFFF">
            <g id="noun_654445_cc" transform="translate(637.337893, 0.000000)">
                <g id="Group">
                    <path d="M329.378688,112.726041 C307.939839,112.726041 289.099637,127.725153 284.552003,147.72397 C284.552003,148.348933 284.552003,148.348933 284.552003,148.973896 C283.902341,150.848785 281.953354,151.473748 280.65403,150.848785 C275.456733,148.973896 270.259436,147.72397 265.06214,147.72397 C244.272952,147.72397 226.732075,163.348045 225.432751,183.346861 L253.368222,183.346861 C255.317208,183.346861 256.616532,184.596787 256.616532,186.471676 C256.616532,188.346566 255.317208,189.596492 253.368222,189.596492 L176.058431,189.596492 C174.109445,189.596492 172.81012,188.346566 172.81012,186.471676 C172.81012,184.596787 174.109445,183.346861 176.058431,183.346861 L218.286468,183.346861 C220.235454,159.598267 240.374979,140.849377 264.412477,140.849377 C269.609774,140.849377 274.157409,141.47434 278.705044,143.349229 C284.552003,122.725449 304.041866,107.726337 326.130378,106.476411 C330.02835,47.1049249 380.701995,0.232698994 443.069557,0.232698994 C508.035767,0.232698994 560.658398,50.8547029 560.658398,113.351004 C560.658398,123.350412 559.359074,133.34982 556.760425,142.724266 C556.760425,142.724266 557.410088,142.724266 557.410088,142.724266 C579.498599,142.724266 597.689138,160.22323 597.689138,181.471972 C597.689138,182.096935 597.689138,182.096935 597.689138,182.721898 L645.764134,182.721898 C647.71312,182.721898 649.012445,183.971824 649.012445,185.846713 C649.012445,187.721602 647.71312,188.971529 645.764134,188.971529 L594.440828,188.971529 C594.440828,188.971529 594.440828,188.971529 594.440828,188.971529 C594.440828,188.971529 594.440828,188.971529 594.440828,188.971529 C594.440828,188.971529 594.440828,188.971529 593.791166,188.971529 C591.842179,188.971529 590.542855,187.096639 591.192517,185.22175 C591.192517,183.971824 591.192517,182.721898 591.192517,180.847009 C591.192517,162.723082 575.600627,148.348933 557.410088,148.348933 C556.110763,148.348933 554.161777,148.348933 552.862453,148.348933 C552.862453,148.348933 552.862453,148.348933 552.862453,148.348933 C552.862453,148.348933 552.862453,148.348933 552.862453,148.348933 C552.862453,148.348933 552.212791,148.348933 552.212791,148.348933 C551.563129,148.348933 550.913466,147.72397 550.263804,147.099007 C550.263804,147.099007 550.263804,147.099007 550.263804,147.099007 C550.263804,147.099007 550.263804,146.474044 549.614142,146.474044 C549.614142,146.474044 549.614142,146.474044 549.614142,146.474044 C549.614142,146.474044 549.614142,146.474044 549.614142,146.474044 C549.614142,146.474044 549.614142,146.474044 549.614142,145.849081 C549.614142,145.849081 549.614142,145.224118 549.614142,145.224118 C552.862453,135.22471 554.811439,124.600338 554.811439,113.351004 C554.811439,54.604481 504.787457,6.48232911 443.719219,6.48232911 C383.950305,6.48232911 335.225647,51.479666 332.626999,109.601226 C332.626999,110.851152 331.327674,112.726041 329.378688,112.726041 C329.378688,112.726041 329.378688,112.726041 329.378688,112.726041 C329.378688,112.726041 329.378688,112.726041 329.378688,112.726041 C329.378688,112.726041 329.378688,112.726041 329.378688,112.726041 C329.378688,112.726041 329.378688,112.726041 329.378688,112.726041 Z" id="Shape"></path>
                    <path d="M3.24831053,213.970049 L51.3233064,213.970049 C53.2722927,213.970049 54.571617,215.219975 54.571617,217.094864 C54.571617,218.969753 53.2722927,220.219679 51.3233064,220.219679 L3.24831053,220.219679 C1.29932421,220.219679 0,218.969753 0,217.094864 C0,215.219975 1.29932421,213.970049 3.24831053,213.970049 Z" id="Shape"></path>
                    <path d="M93.5513434,213.970049 L307.939839,213.970049 C309.888825,213.970049 311.188149,215.219975 311.188149,217.094864 C311.188149,218.969753 309.888825,220.219679 307.939839,220.219679 L93.5513434,220.219679 C91.602357,220.219679 90.3030328,218.969753 90.3030328,217.094864 C90.3030328,215.219975 91.602357,213.970049 93.5513434,213.970049 Z" id="Shape"></path>
                </g>
            </g>
            <g id="noun_655502_cc" transform="translate(0.000000, 269.359897)">
                <g id="Group">
                    <path d="M50.3915645,44.290974 C50.3915645,44.0462725 50.3915645,44.0462725 50.3915645,44.290974 C49.3735531,44.0462725 48.3555417,44.0462725 47.3375303,44.0462725 C34.8668906,44.0462725 24.6867766,53.834333 24.6867766,65.8247072 C24.6867766,68.0270209 24.9412794,70.2293345 25.704788,72.1869466 L33.0853706,72.1869466 C34.6123878,72.1869466 35.6303992,73.1657526 35.6303992,74.6339617 C35.6303992,76.1021708 34.6123878,77.0809769 33.0853706,77.0809769 L24.1777709,77.0809769 C24.1777709,77.0809769 24.1777709,77.0809769 24.1777709,77.0809769 C24.1777709,77.0809769 24.1777709,77.0809769 24.1777709,77.0809769 L13.9976568,77.0809769 C12.4706397,77.0809769 11.4526283,76.1021708 11.4526283,74.6339617 C11.4526283,73.1657526 12.4706397,72.1869466 13.9976568,72.1869466 L20.6147309,72.1869466 C20.1057252,69.984633 19.8512224,68.0270209 19.8512224,65.8247072 C19.8512224,51.1426164 32.3218621,39.1522422 47.5920332,39.1522422 C48.1010389,39.1522422 48.6100446,39.1522422 49.1190503,39.1522422 C55.2271187,16.6397029 76.3508553,0.734104542 100.783129,0.734104542 C126.996923,0.734104542 149.138671,19.3314196 153.465219,43.801571 C158.046271,40.8651528 163.645333,39.3969437 169.244396,39.3969437 C182.98755,39.3969437 194.694681,48.4508997 197.748715,60.9306769 C199.02123,60.6859754 200.293744,60.4412739 201.566258,60.4412739 C209.455846,60.4412739 216.327423,65.3353042 218.617949,72.4316481 L252.212325,72.4316481 C253.739343,72.4316481 254.757354,73.4104542 254.757354,74.8786632 C254.757354,76.3468723 253.739343,77.3256784 252.212325,77.3256784 L189.859127,77.3256784 C188.33211,77.3256784 187.314098,76.3468723 187.314098,74.8786632 C187.314098,73.4104542 188.33211,72.4316481 189.859127,72.4316481 L212.509881,72.4316481 C210.473858,68.2717224 205.892807,65.3353042 200.80275,65.3353042 C199.02123,65.3353042 197.494212,65.5800057 195.967195,66.3141103 C195.967195,66.3141103 195.712693,66.3141103 195.712693,66.3141103 C195.712693,66.3141103 195.45819,66.3141103 195.45819,66.3141103 C195.45819,66.3141103 195.203687,66.3141103 195.203687,66.3141103 C195.203687,66.3141103 195.203687,66.3141103 195.203687,66.3141103 C195.203687,66.3141103 194.949184,66.3141103 194.949184,66.3141103 C194.694681,66.3141103 194.440178,66.3141103 194.440178,66.3141103 C194.440178,66.3141103 194.185675,66.0694087 194.185675,66.0694087 C193.931173,66.0694087 193.931173,65.8247072 193.67667,65.8247072 C193.67667,65.8247072 193.422167,65.5800057 193.422167,65.5800057 C193.422167,65.3353042 193.167664,65.3353042 193.167664,65.0906027 C193.167664,65.0906027 193.167664,65.0906027 193.167664,64.8459012 C193.167664,64.8459012 193.167664,64.6011997 193.167664,64.6011997 C193.167664,64.6011997 193.167664,64.3564981 193.167664,64.3564981 C191.640647,52.855527 181.460533,44.290974 169.244396,44.290974 C163.39083,44.290974 157.537265,46.4932876 153.210716,50.1638103 C153.210716,50.1638103 152.956214,50.1638103 152.956214,50.4085119 C152.701711,50.4085119 152.701711,50.6532134 152.447208,50.6532134 C152.192705,50.6532134 152.192705,50.6532134 151.938202,50.6532134 C151.938202,50.6532134 151.683699,50.6532134 151.683699,50.6532134 C151.683699,50.6532134 151.429196,50.6532134 151.429196,50.6532134 C151.429196,50.6532134 151.429196,50.6532134 151.429196,50.6532134 C151.429196,50.6532134 151.174694,50.6532134 151.174694,50.6532134 C150.920191,50.6532134 150.665688,50.6532134 150.665688,50.4085119 C150.665688,50.4085119 150.411185,50.4085119 150.411185,50.1638103 C150.156682,50.1638103 150.156682,49.9191088 149.902179,49.9191088 C149.902179,49.9191088 149.902179,49.9191088 149.902179,49.9191088 C149.902179,49.9191088 149.902179,49.6744073 149.647676,49.6744073 C149.647676,49.4297058 149.393174,49.4297058 149.393174,49.1850043 C149.393174,48.9403028 149.393174,48.9403028 149.393174,48.6956013 C149.393174,48.6956013 149.393174,48.4508997 149.393174,48.4508997 C147.611654,24.4701514 126.487917,5.62813482 101.292135,5.62813482 C79.6593924,5.62813482 60.3171757,19.8208226 54.718113,39.8863468 C57.0086386,40.3757498 59.2991643,41.3545558 61.3351871,42.3333619 C62.6077014,43.0674664 63.1167071,44.5356755 62.3531985,45.7591831 C61.58969,46.9826907 60.0626729,47.4720937 58.7901586,46.7379891 C55.7361244,45.2697801 53.1910959,44.5356755 50.3915645,44.290974 C50.3915645,44.0462725 50.3915645,44.290974 50.3915645,44.290974 Z" id="Shape"></path>
                    <path d="M86.5309694,87.3584404 L214.800406,87.3584404 C216.327423,87.3584404 217.345435,88.3372465 217.345435,89.8054556 C217.345435,91.2736647 216.327423,92.2524707 214.800406,92.2524707 L86.5309694,92.2524707 C85.0039523,92.2524707 83.9859409,91.2736647 83.9859409,89.8054556 C83.9859409,88.3372465 85.0039523,87.3584404 86.5309694,87.3584404 Z" id="Shape"></path>
                    <path d="M2.79953136,87.3584404 L49.1190503,87.3584404 C50.6460674,87.3584404 51.6640788,88.3372465 51.6640788,89.8054556 C51.6640788,91.2736647 50.6460674,92.2524707 49.1190503,92.2524707 L2.79953136,92.2524707 C1.27251426,92.2524707 0.254502851,91.2736647 0.254502851,89.8054556 C0.254502851,88.3372465 1.27251426,87.3584404 2.79953136,87.3584404 Z" id="Shape"></path>
                </g>
            </g>
        </g>
    </g>
</svg>