<?xml version="1.0" encoding="utf-8"?>
<!-- Generator: Adobe Illustrator 16.0.4, SVG Export Plug-In . SVG Version: 6.00 Build 0)  -->
<!DOCTYPE svg PUBLIC "-//W3C//DTD SVG 1.1//EN" "http://www.w3.org/Graphics/SVG/1.1/DTD/svg11.dtd">
<svg version="1.1" id="Layer_1" xmlns="http://www.w3.org/2000/svg" xmlns:xlink="http://www.w3.org/1999/xlink" x="0px" y="0px"
	 width="75px" height="88px" viewBox="0 0 75 88" enable-background="new 0 0 75 88" xml:space="preserve">
<desc>Created with Sketch.</desc>
<g id="Boomtown-Prototypes">
	<g id="Desktop-HD-Copy" transform="translate(-683.000000, -204.000000)">
		<path id="Combined-Shape" fill="#263238" d="M735.186,204.749c6.203,0.926,11.134,2.785,14.793,5.577
			c1.801,1.374,3.275,2.931,4.425,4.672l-32.422,32.887l-14.55-15.382L735.186,204.749z M728.625,204.137l-24.681,24.681
			l-9.13-9.651L697.439,204l27.896,0.06C726.461,204.064,727.558,204.09,728.625,204.137z M683,287.428l9.798-56.613l22.531,23.818
			L683,287.428z M685.724,291.727l33.015-33.488l24.622,26.027c-0.249,0.201-0.503,0.398-0.763,0.592
			c-6.125,4.579-14.51,6.869-25.155,6.869H685.724z M756.622,219.811c0.698,2.393,0.954,5.036,0.768,7.929
			c-0.603,9.238-5.663,15.786-15.184,19.642c3.415,1.205,6.075,3.385,7.983,6.537c1.908,3.154,2.722,6.939,2.44,11.357
			c-0.294,4.424-1.345,8.315-3.153,11.678l-24.086-25.463L756.622,219.811z"/>
	</g>
</g>
</svg>
