
<svg width="632px" height="197px" viewBox="0 0 632 197" version="1.1" xmlns="http://www.w3.org/2000/svg" xmlns:xlink="http://www.w3.org/1999/xlink">
    <!-- Generator: Sketch 44.1 (41455) - http://www.bohemiancoding.com/sketch -->
    <desc>Created with Sketch.</desc>
    <defs></defs>
    <g id="Big-SVG" stroke="none" stroke-width="1" fill="none" fill-rule="evenodd">
        <g id="BottomLeft">
            <g id="noun_683414_cc" transform="translate(193.000000, 164.000000)" stroke="#FFFFFF">
                <g id="Group">
                    <path d="M16.421,27.235 L55.695,27.235" id="Shape" stroke-width="2.4924"></path>
                    <path d="M69.753,27.226 C74.589,27.226 78.636,27.226 79.826,27.226 C83.351,27.226 83.07,18.287 72.655,13.334 C68.745,11.474 64.263,10.734 60.189,10.534 C57.646,7.58 49.732,0.259 33.75,0.259 C13.73,0.259 3.892,11.817 3.892,11.817 C2.22,11.817 0.865,13.172 0.865,14.844 L0.865,24.208 C0.865,25.671 1.449,26.945 2.828,27.227" id="Shape" stroke-width="2.4924"></path>
                    <circle id="Oval" stroke-width="2.4924" cx="62.486" cy="23.935" r="7.74"></circle>
                    <circle id="Oval" stroke-width="2.4924" cx="62.486" cy="23.935" r="2.814"></circle>
                    <circle id="Oval" stroke-width="2.4924" cx="9.283" cy="23.436" r="7.74"></circle>
                    <circle id="Oval" stroke-width="2.4924" cx="9.283" cy="23.436" r="2.814"></circle>
                    <path d="M5.166,10.835 C5.166,10.835 27.417,10.785 28.585,10.785 C29.279,10.785 23.418,1.333 23.418,1.333" id="Shape" stroke-width="2.4924"></path>
                    <path d="M77.008,17.837 C76.618,18.221 66.464,13.953 66.866,12.364 C66.965,11.975 71.043,12.096 73.584,13.385 C78.409,15.834 77.206,17.643 77.008,17.837 Z" id="Shape" stroke-width="1.2462"></path>
                    <path d="M70.636,22.106 L80.877,22.106" id="Shape" stroke-width="2.4924"></path>
                    <path d="M28.381,10.312 L38.007,27.235" id="Shape" stroke-width="2.4924"></path>
                    <path d="M42.316,9.826 L51.982,27.235" id="Shape" stroke-width="2.4924"></path>
                    <path d="M35.57,0.259 C35.57,0.259 41.915,9.689 42.145,9.826 C43.383,10.566 60.331,10.342 60.331,10.342" id="Shape" stroke-width="2.4924"></path>
                </g>
            </g>
            <g id="noun_955358_cc" fill-rule="nonzero" fill="#FFFFFF">
                <path d="M190.58,188.754545 L178.793333,188.754545 L178.793333,181.390909 C183.95,180.163636 187.633333,175.745455 187.633333,170.345455 L187.633333,163.472727 C187.633333,157.090909 182.476667,152.181818 176.337778,152.181818 C170.198889,152.181818 165.042222,157.336364 165.042222,163.472727 L165.042222,170.345455 C165.042222,175.745455 168.971111,180.409091 173.882222,181.390909 L173.882222,188.754545 L160.376667,188.754545 L160.376667,146.290909 L162.586667,146.290909 C164.06,146.290909 165.042222,145.309091 165.042222,143.836364 L165.042222,129.354545 C165.042222,127.881818 164.06,126.9 162.586667,126.9 L155.22,126.9 C155.22,126.9 155.22,126.9 155.22,126.654545 L155.22,32.8909091 L157.43,32.8909091 C158.903333,32.8909091 159.885556,31.9090909 159.885556,30.4363636 L159.885556,13.9909091 C159.885556,12.5181818 158.903333,11.5363636 157.43,11.5363636 L155.22,11.5363636 L155.22,2.45454545 C155.22,0.981818182 154.237778,0 152.764444,0 L93.0944444,0 C91.6211111,0 90.6388889,0.981818182 90.6388889,2.45454545 L90.6388889,11.2909091 L88.4288889,11.2909091 C86.9555556,11.2909091 85.9733333,12.2727273 85.9733333,13.7454545 L85.9733333,30.1909091 C85.9733333,31.6636364 86.9555556,32.6454545 88.4288889,32.6454545 L91.13,32.6454545 L91.13,40.0090909 L56.2611111,40.0090909 L56.2611111,31.6636364 C56.2611111,30.1909091 55.2788889,29.2090909 53.8055556,29.2090909 L41.5277778,29.2090909 C40.0544444,29.2090909 39.0722222,30.1909091 39.0722222,31.6636364 L39.0722222,40.0090909 L29.25,40.0090909 C27.7766667,40.0090909 26.7944444,40.9909091 26.7944444,42.4636364 L26.7944444,58.9090909 C26.7944444,60.3818182 27.7766667,61.3636364 29.25,61.3636364 L31.46,61.3636364 L31.46,188.509091 L17.9544444,188.509091 L17.9544444,176.727273 C22.3744444,175.5 25.8122222,171.572727 25.8122222,166.663636 L25.8122222,153.654545 C25.8122222,148.009091 21.1466667,143.345455 15.4988889,143.345455 C9.85111111,143.345455 5.18555556,148.009091 5.18555556,153.654545 L5.18555556,166.909091 C5.18555556,171.818182 8.62333333,175.745455 13.0433333,176.972727 L13.0433333,188.754545 L2.97555556,188.754545 C1.50222222,188.754545 0.52,189.736364 0.52,191.209091 C0.52,192.681818 1.50222222,193.663636 2.97555556,193.663636 L190.334444,193.663636 C191.807778,193.663636 192.79,192.681818 192.79,191.209091 C192.79,189.736364 191.807778,188.754545 190.58,188.754545 Z M10.0966667,166.909091 L10.0966667,153.9 C10.0966667,150.954545 12.5522222,148.5 15.4988889,148.5 C18.4455556,148.5 20.9011111,150.954545 20.9011111,153.9 L20.9011111,166.909091 C20.9011111,169.854545 18.4455556,172.309091 15.4988889,172.309091 C12.5522222,172.309091 10.0966667,169.854545 10.0966667,166.909091 Z M95.55,4.90909091 L150.063333,4.90909091 L150.063333,11.2909091 L95.55,11.2909091 L95.55,4.90909091 Z M90.8844444,27.9818182 L90.8844444,16.4454545 L154.974444,16.4454545 L154.974444,27.9818182 L90.8844444,27.9818182 Z M98.2511111,40.2545455 L96.0411111,40.2545455 L96.0411111,32.8909091 L150.308889,32.8909091 L150.308889,126.9 C150.308889,126.9 150.308889,126.9 150.308889,127.145455 L96.0411111,127.145455 C96.0411111,127.145455 96.0411111,127.145455 96.0411111,126.9 L96.0411111,61.6090909 L98.2511111,61.6090909 C99.7244444,61.6090909 100.706667,60.6272727 100.706667,59.1545455 L100.706667,42.7090909 C100.706667,41.2363636 99.7244444,40.2545455 98.2511111,40.2545455 Z M43.9833333,34.1181818 L51.35,34.1181818 L51.35,40.0090909 L43.9833333,40.0090909 L43.9833333,34.1181818 Z M31.7055556,45.1636364 L95.7955556,45.1636364 L95.7955556,56.7 L31.7055556,56.7 L31.7055556,45.1636364 Z M77.3788889,188.754545 L36.3711111,188.754545 L36.3711111,61.6090909 L90.8844444,61.6090909 L90.8844444,126.654545 C90.8844444,126.654545 90.8844444,126.654545 90.8844444,126.9 L74.6777778,126.9 C73.2044444,126.9 72.2222222,127.881818 72.2222222,129.354545 L72.2222222,143.836364 C72.2222222,145.309091 73.2044444,146.290909 74.6777778,146.290909 L77.1333333,146.290909 L77.1333333,188.754545 L77.3788889,188.754545 Z M107.827778,188.754545 L96.7777778,188.754545 L96.7777778,166.172727 L107.827778,166.172727 L107.827778,188.754545 Z M155.22,188.754545 L112.738889,188.754545 L112.738889,163.963636 C112.738889,162.490909 111.756667,161.509091 110.283333,161.509091 L94.3222222,161.509091 C92.8488889,161.509091 91.8666667,162.490909 91.8666667,163.963636 L91.8666667,189 L82.29,189 L82.29,146.290909 L155.22,146.290909 L155.22,188.754545 Z M159.885556,141.381818 L77.3788889,141.381818 L77.3788889,131.809091 L159.885556,131.809091 L159.885556,141.381818 Z M169.707778,170.345455 L169.707778,163.472727 C169.707778,159.790909 172.654444,157.090909 176.092222,157.090909 C179.53,157.090909 182.476667,160.036364 182.476667,163.472727 L182.476667,170.345455 C182.476667,174.027273 179.53,176.727273 176.092222,176.727273 C172.654444,176.727273 169.707778,174.027273 169.707778,170.345455 Z" id="Shape"></path>
                <path d="M107.336667,90.3272727 C108.81,90.3272727 109.792222,89.3454545 109.792222,87.8727273 L109.792222,76.8272727 C109.792222,75.3545455 108.81,74.3727273 107.336667,74.3727273 C105.863333,74.3727273 104.881111,75.3545455 104.881111,76.8272727 L104.881111,87.8727273 C104.881111,89.3454545 105.863333,90.3272727 107.336667,90.3272727 Z" id="Shape"></path>
                <path d="M123.297778,90.3272727 C124.771111,90.3272727 125.753333,89.3454545 125.753333,87.8727273 L125.753333,76.8272727 C125.753333,75.3545455 124.771111,74.3727273 123.297778,74.3727273 C121.824444,74.3727273 120.842222,75.3545455 120.842222,76.8272727 L120.842222,87.8727273 C120.842222,89.3454545 121.824444,90.3272727 123.297778,90.3272727 Z" id="Shape"></path>
                <path d="M139.258889,90.3272727 C140.732222,90.3272727 141.714444,89.3454545 141.714444,87.8727273 L141.714444,76.8272727 C141.714444,75.3545455 140.732222,74.3727273 139.258889,74.3727273 C137.785556,74.3727273 136.803333,75.3545455 136.803333,76.8272727 L136.803333,87.8727273 C136.803333,89.3454545 138.031111,90.3272727 139.258889,90.3272727 Z" id="Shape"></path>
                <path d="M107.336667,119.290909 C108.81,119.290909 109.792222,118.309091 109.792222,116.836364 L109.792222,105.790909 C109.792222,104.318182 108.81,103.336364 107.336667,103.336364 C105.863333,103.336364 104.881111,104.318182 104.881111,105.790909 L104.881111,116.836364 C104.881111,118.309091 105.863333,119.290909 107.336667,119.290909 Z" id="Shape"></path>
                <path d="M123.297778,119.290909 C124.771111,119.290909 125.753333,118.309091 125.753333,116.836364 L125.753333,105.790909 C125.753333,104.318182 124.771111,103.336364 123.297778,103.336364 C121.824444,103.336364 120.842222,104.318182 120.842222,105.790909 L120.842222,116.836364 C120.842222,118.309091 121.824444,119.290909 123.297778,119.290909 Z" id="Shape"></path>
                <path d="M139.258889,119.290909 C140.732222,119.290909 141.714444,118.309091 141.714444,116.836364 L141.714444,105.790909 C141.714444,104.318182 140.732222,103.336364 139.258889,103.336364 C137.785556,103.336364 136.803333,104.318182 136.803333,105.790909 L136.803333,116.836364 C136.803333,118.309091 138.031111,119.290909 139.258889,119.290909 Z" id="Shape"></path>
                <path d="M107.336667,61.6090909 C108.81,61.6090909 109.792222,60.6272727 109.792222,59.1545455 L109.792222,48.1090909 C109.792222,46.6363636 108.81,45.6545455 107.336667,45.6545455 C105.863333,45.6545455 104.881111,46.6363636 104.881111,48.1090909 L104.881111,59.1545455 C104.881111,60.3818182 105.863333,61.6090909 107.336667,61.6090909 Z" id="Shape"></path>
                <path d="M123.297778,61.6090909 C124.771111,61.6090909 125.753333,60.6272727 125.753333,59.1545455 L125.753333,48.1090909 C125.753333,46.6363636 124.771111,45.6545455 123.297778,45.6545455 C121.824444,45.6545455 120.842222,46.6363636 120.842222,48.1090909 L120.842222,59.1545455 C120.842222,60.3818182 121.824444,61.6090909 123.297778,61.6090909 Z" id="Shape"></path>
                <path d="M139.258889,61.6090909 C140.732222,61.6090909 141.714444,60.6272727 141.714444,59.1545455 L141.714444,48.1090909 C141.714444,46.6363636 140.732222,45.6545455 139.258889,45.6545455 C137.785556,45.6545455 136.803333,46.6363636 136.803333,48.1090909 L136.803333,59.1545455 C136.803333,60.3818182 138.031111,61.6090909 139.258889,61.6090909 Z" id="Shape"></path>
                <path d="M47.6666667,74.6181818 C46.1933333,74.6181818 45.2111111,75.6 45.2111111,77.0727273 L45.2111111,88.1181818 C45.2111111,89.5909091 46.1933333,90.5727273 47.6666667,90.5727273 C49.14,90.5727273 50.1222222,89.5909091 50.1222222,88.1181818 L50.1222222,77.0727273 C50.1222222,75.6 49.14,74.6181818 47.6666667,74.6181818 Z" id="Shape"></path>
                <path d="M63.8733333,74.6181818 C62.4,74.6181818 61.4177778,75.6 61.4177778,77.0727273 L61.4177778,88.1181818 C61.4177778,89.5909091 62.4,90.5727273 63.8733333,90.5727273 C65.3466667,90.5727273 66.3288889,89.5909091 66.3288889,88.1181818 L66.3288889,77.0727273 C66.3288889,75.6 65.1011111,74.6181818 63.8733333,74.6181818 Z" id="Shape"></path>
                <path d="M79.8344444,90.3272727 C81.3077778,90.3272727 82.29,89.3454545 82.29,87.8727273 L82.29,76.8272727 C82.29,75.3545455 81.3077778,74.3727273 79.8344444,74.3727273 C78.3611111,74.3727273 77.3788889,75.3545455 77.3788889,76.8272727 L77.3788889,87.8727273 C77.3788889,89.3454545 78.3611111,90.3272727 79.8344444,90.3272727 Z" id="Shape"></path>
                <path d="M47.6666667,103.581818 C46.1933333,103.581818 45.2111111,104.563636 45.2111111,106.036364 L45.2111111,117.081818 C45.2111111,118.554545 46.1933333,119.536364 47.6666667,119.536364 C49.14,119.536364 50.1222222,118.554545 50.1222222,117.081818 L50.1222222,106.036364 C50.1222222,104.563636 49.14,103.581818 47.6666667,103.581818 Z" id="Shape"></path>
                <path d="M63.8733333,103.581818 C62.4,103.581818 61.4177778,104.563636 61.4177778,106.036364 L61.4177778,117.081818 C61.4177778,118.554545 62.4,119.536364 63.8733333,119.536364 C65.3466667,119.536364 66.3288889,118.554545 66.3288889,117.081818 L66.3288889,106.036364 C66.3288889,104.563636 65.1011111,103.581818 63.8733333,103.581818 Z" id="Shape"></path>
                <path d="M79.8344444,119.290909 C81.3077778,119.290909 82.29,118.309091 82.29,116.836364 L82.29,105.790909 C82.29,104.318182 81.3077778,103.336364 79.8344444,103.336364 C78.3611111,103.336364 77.3788889,104.318182 77.3788889,105.790909 L77.3788889,116.836364 C77.3788889,118.309091 78.3611111,119.290909 79.8344444,119.290909 Z" id="Shape"></path>
                <path d="M47.6666667,132.545455 C46.1933333,132.545455 45.2111111,133.527273 45.2111111,135 L45.2111111,146.045455 C45.2111111,147.518182 46.1933333,148.5 47.6666667,148.5 C49.14,148.5 50.1222222,147.518182 50.1222222,146.045455 L50.1222222,135 C50.1222222,133.527273 49.14,132.545455 47.6666667,132.545455 Z" id="Shape"></path>
                <path d="M63.8733333,132.545455 C62.4,132.545455 61.4177778,133.527273 61.4177778,135 L61.4177778,146.045455 C61.4177778,147.518182 62.4,148.5 63.8733333,148.5 C65.3466667,148.5 66.3288889,147.518182 66.3288889,146.045455 L66.3288889,135 C66.3288889,133.527273 65.1011111,132.545455 63.8733333,132.545455 Z" id="Shape"></path>
                <path d="M47.6666667,161.509091 C46.1933333,161.509091 45.2111111,162.490909 45.2111111,163.963636 L45.2111111,175.009091 C45.2111111,176.481818 46.1933333,177.463636 47.6666667,177.463636 C49.14,177.463636 50.1222222,176.481818 50.1222222,175.009091 L50.1222222,163.963636 C50.1222222,162.490909 49.14,161.509091 47.6666667,161.509091 Z" id="Shape"></path>
                <path d="M63.8733333,161.509091 C62.4,161.509091 61.4177778,162.490909 61.4177778,163.963636 L61.4177778,175.009091 C61.4177778,176.481818 62.4,177.463636 63.8733333,177.463636 C65.3466667,177.463636 66.3288889,176.481818 66.3288889,175.009091 L66.3288889,163.963636 C66.3288889,162.490909 65.1011111,161.509091 63.8733333,161.509091 Z" id="Shape"></path>
                <path d="M125.998889,177.218182 C127.472222,177.218182 128.454444,176.236364 128.454444,174.763636 L128.454444,163.718182 C128.454444,162.245455 127.472222,161.263636 125.998889,161.263636 C124.525556,161.263636 123.543333,162.245455 123.543333,163.718182 L123.543333,174.763636 C123.543333,176.236364 124.771111,177.218182 125.998889,177.218182 Z" id="Shape"></path>
                <path d="M141.96,177.218182 C143.433333,177.218182 144.415556,176.236364 144.415556,174.763636 L144.415556,163.718182 C144.415556,162.245455 143.433333,161.263636 141.96,161.263636 C140.486667,161.263636 139.504444,162.245455 139.504444,163.718182 L139.504444,174.763636 C139.504444,176.236364 140.732222,177.218182 141.96,177.218182 Z" id="Shape"></path>
            </g>
            <g id="noun_590425_cc" transform="translate(469.000000, 99.000000)" fill-rule="nonzero" fill="#FFFFFF">
                <g id="Group" transform="translate(0.447761, 0.000000)">
                    <path d="M15.4104478,83.4106667 L8.35820896,83.4106667 L8.35820896,88.6373333 L15.4104478,88.6373333 L32.3880597,88.6373333 L43.358209,88.6373333 L60.3358209,88.6373333 L102.649254,88.6373333 L119.626866,88.6373333 L130.597015,88.6373333 L147.574627,88.6373333 L153.58209,88.6373333 L153.58209,83.4106667 L147.574627,83.4106667 L147.574627,37.6773333 L156.19403,37.6773333 L156.19403,26.44 L80.9701493,0.568 L5.74626866,26.44 L5.74626866,37.6773333 L15.4104478,37.6773333 L15.4104478,83.4106667 Z M27.1641791,37.6773333 L27.1641791,42.904 L20.6343284,42.904 L20.6343284,37.6773333 L27.1641791,37.6773333 L27.1641791,37.6773333 Z M20.6343284,83.4106667 L20.6343284,48.392 L27.1641791,48.392 L27.1641791,83.4106667 L20.6343284,83.4106667 Z M32.3880597,83.4106667 L32.3880597,37.6773333 L43.358209,37.6773333 L43.358209,83.4106667 L32.3880597,83.4106667 Z M55.1119403,43.1653333 L48.5820896,43.1653333 L48.5820896,37.9386667 L55.1119403,37.9386667 L55.1119403,43.1653333 Z M48.5820896,83.4106667 L48.5820896,48.392 L55.1119403,48.392 L55.1119403,83.4106667 L48.5820896,83.4106667 Z M74.7014925,82.6266667 L74.7014925,54.4026667 L88.2835821,54.4026667 L88.2835821,82.6266667 L74.7014925,82.6266667 Z M93.5074627,83.4106667 L93.5074627,49.176 L69.4776119,49.176 L69.4776119,83.4106667 L60.3358209,83.4106667 L60.3358209,37.6773333 L102.649254,37.6773333 L102.649254,83.4106667 L93.5074627,83.4106667 Z M114.402985,43.1653333 L107.873134,43.1653333 L107.873134,37.6773333 L114.402985,37.6773333 L114.402985,43.1653333 Z M107.873134,83.4106667 L107.873134,48.392 L114.402985,48.392 L114.402985,83.4106667 L107.873134,83.4106667 Z M119.626866,83.4106667 L119.626866,37.6773333 L130.597015,37.6773333 L130.597015,83.4106667 L119.626866,83.4106667 Z M135.820896,83.4106667 L135.820896,48.392 L142.350746,48.392 L142.350746,83.4106667 L135.820896,83.4106667 Z M142.089552,43.1653333 L135.820896,43.1653333 L135.820896,37.6773333 L142.350746,37.6773333 L142.350746,43.1653333 L142.089552,43.1653333 Z M10.9701493,30.0986667 L80.9701493,6.056 L150.970149,30.0986667 L150.970149,32.4506667 L10.9701493,32.4506667 L10.9701493,30.0986667 Z" id="Shape"></path>
                    <rect id="Rectangle-path" x="0" y="91.2506667" width="162.201493" height="5.22666667"></rect>
                    <path d="M80.9701493,10.4986667 C76.2686567,10.4986667 72.3507463,14.4186667 72.3507463,19.1226667 C72.3507463,23.8266667 76.2686567,27.7466667 80.9701493,27.7466667 C85.6716418,27.7466667 89.5895522,23.8266667 89.5895522,19.1226667 C89.5895522,14.4186667 85.6716418,10.4986667 80.9701493,10.4986667 Z M80.9701493,22.7813333 C79.141791,22.7813333 77.5746269,21.2133333 77.5746269,19.384 C77.5746269,17.5546667 79.141791,15.9866667 80.9701493,15.9866667 C82.7985075,15.9866667 84.3656716,17.5546667 84.3656716,19.384 C84.3656716,21.2133333 82.7985075,22.7813333 80.9701493,22.7813333 Z" id="Shape"></path>
                </g>
            </g>
            <g id="noun_952750_cc" transform="translate(263.000000, 0.000000)" fill-rule="nonzero" fill="#FFFFFF">
                <path d="M3.13288889,195.445886 L191.509111,195.445886 C192.990444,195.445886 193.978,194.457538 193.978,192.975015 C193.978,191.492492 192.990444,190.504144 191.509111,190.504144 L183.361778,190.504144 L183.361778,178.891051 C187.558889,177.902703 190.768444,173.949309 190.768444,169.254655 L190.768444,156.9003 C190.768444,151.464384 186.324444,147.016817 180.892889,147.016817 C175.461333,147.016817 171.017333,151.464384 171.017333,156.9003 L171.017333,169.254655 C171.017333,173.949309 174.226889,177.655616 178.424,178.891051 L178.424,190.504144 L166.079556,190.504144 L166.079556,148.005165 C172.251778,146.76973 176.695778,141.580901 176.695778,135.156637 L176.695778,127.002763 C176.695778,119.837237 170.770444,113.907147 163.610667,113.907147 C156.450889,113.907147 150.525556,119.837237 150.525556,127.002763 L150.525556,135.156637 C150.525556,141.580901 155.216444,147.016817 161.141778,148.005165 L161.141778,190.504144 L147.809778,190.504144 L147.809778,183.091532 C152.500667,181.856096 156.204,177.655616 156.204,172.713874 L156.204,166.28961 C156.204,160.35952 151.266222,155.417778 145.340889,155.417778 C139.415556,155.417778 134.477778,160.35952 134.477778,166.28961 L134.477778,172.713874 C134.477778,177.902703 137.934222,182.103183 142.872,183.091532 L142.872,190.504144 L131.021333,190.504144 L131.021333,33.3567568 L133.243333,33.3567568 C134.724667,33.3567568 135.712222,32.3684084 135.712222,30.8858859 L135.712222,14.3310511 C135.712222,12.8485285 134.724667,11.8601802 133.243333,11.8601802 L131.021333,11.8601802 L131.021333,2.96504505 C131.021333,1.48252252 130.033778,0.494174174 128.552444,0.494174174 L71.0273333,0.494174174 C69.546,0.494174174 68.5584444,1.48252252 68.5584444,2.96504505 L68.5584444,11.8601802 L66.3364444,11.8601802 C64.8551111,11.8601802 63.8675556,12.8485285 63.8675556,14.3310511 L63.8675556,30.8858859 C63.8675556,32.3684084 64.8551111,33.3567568 66.3364444,33.3567568 L68.8053333,33.3567568 L68.8053333,40.7693694 L35.4753333,40.7693694 L35.4753333,32.3684084 C35.4753333,30.8858859 34.4877778,29.8975375 33.0064444,29.8975375 L21.1557778,29.8975375 C19.6744444,29.8975375 18.6868889,30.8858859 18.6868889,32.3684084 L18.6868889,40.7693694 L9.05822222,40.7693694 C7.57688889,40.7693694 6.58933333,41.7577177 6.58933333,43.2402402 L6.58933333,59.7950751 C6.58933333,61.2775976 7.57688889,62.2659459 9.05822222,62.2659459 L11.2802222,62.2659459 L11.2802222,190.257057 L3.13288889,190.257057 C1.65155556,190.257057 0.664,191.245405 0.664,192.727928 C0.664,194.21045 1.89844444,195.445886 3.13288889,195.445886 Z M175.955111,169.254655 L175.955111,156.9003 C175.955111,154.182342 178.177111,151.958559 180.892889,151.958559 C183.608667,151.958559 185.830667,154.182342 185.830667,156.9003 L185.830667,169.254655 C185.830667,171.972613 183.608667,174.196396 180.892889,174.196396 C178.177111,174.196396 175.955111,171.972613 175.955111,169.254655 Z M155.463333,135.156637 L155.463333,127.002763 C155.463333,122.555195 159.166667,118.848889 163.610667,118.848889 C168.054667,118.848889 171.758,122.555195 171.758,127.002763 L171.758,135.156637 C171.758,139.604204 168.054667,143.310511 163.610667,143.310511 C159.166667,143.310511 155.463333,139.604204 155.463333,135.156637 Z M139.662444,172.466787 L139.662444,166.042523 C139.662444,162.83039 142.378222,160.112432 145.587778,160.112432 C148.797333,160.112432 151.513111,162.83039 151.513111,166.042523 L151.513111,172.466787 C151.513111,175.678919 148.797333,178.396877 145.587778,178.396877 C142.378222,178.396877 139.662444,175.678919 139.662444,172.466787 Z M69.0522222,190.504144 L16.218,190.504144 L16.218,62.2659459 L68.8053333,62.2659459 L68.8053333,190.504144 L69.0522222,190.504144 Z M126.083556,190.504144 L73.99,190.504144 L73.99,62.2659459 L76.212,62.2659459 C77.6933333,62.2659459 78.6808889,61.2775976 78.6808889,59.7950751 L78.6808889,43.2402402 C78.6808889,41.7577177 77.6933333,40.7693694 76.212,40.7693694 L73.99,40.7693694 L73.99,33.3567568 L126.330444,33.3567568 L126.330444,190.504144 L126.083556,190.504144 Z M73.4962222,5.18882883 L126.083556,5.18882883 L126.083556,11.6130931 L73.4962222,11.6130931 L73.4962222,5.18882883 Z M68.8053333,28.415015 L68.8053333,16.8019219 L130.774444,16.8019219 L130.774444,28.415015 L68.8053333,28.415015 Z M23.6246667,34.8392793 L30.5375556,34.8392793 L30.5375556,40.7693694 L23.6246667,40.7693694 L23.6246667,34.8392793 Z M11.774,45.7111111 L73.7431111,45.7111111 L73.7431111,57.3242042 L11.774,57.3242042 L11.774,45.7111111 Z" id="Shape"></path>
                <path d="M84.6062222,91.4222222 C86.0875556,91.4222222 87.0751111,90.4338739 87.0751111,88.9513514 L87.0751111,77.8324324 C87.0751111,76.3499099 86.0875556,75.3615616 84.6062222,75.3615616 C83.1248889,75.3615616 82.1373333,76.3499099 82.1373333,77.8324324 L82.1373333,88.9513514 C82.1373333,90.1867868 83.3717778,91.4222222 84.6062222,91.4222222 Z" id="Shape"></path>
                <path d="M100.160222,91.4222222 C101.641556,91.4222222 102.629111,90.4338739 102.629111,88.9513514 L102.629111,77.8324324 C102.629111,76.3499099 101.641556,75.3615616 100.160222,75.3615616 C98.6788889,75.3615616 97.6913333,76.3499099 97.6913333,77.8324324 L97.6913333,88.9513514 C97.6913333,90.1867868 98.9257778,91.4222222 100.160222,91.4222222 Z" id="Shape"></path>
                <path d="M115.714222,91.4222222 C117.195556,91.4222222 118.183111,90.4338739 118.183111,88.9513514 L118.183111,77.8324324 C118.183111,76.3499099 117.195556,75.3615616 115.714222,75.3615616 C114.232889,75.3615616 113.245333,76.3499099 113.245333,77.8324324 L113.245333,88.9513514 C113.245333,90.1867868 114.479778,91.4222222 115.714222,91.4222222 Z" id="Shape"></path>
                <path d="M84.6062222,120.578498 C86.0875556,120.578498 87.0751111,119.59015 87.0751111,118.107628 L87.0751111,106.988709 C87.0751111,105.506186 86.0875556,104.517838 84.6062222,104.517838 C83.1248889,104.517838 82.1373333,105.506186 82.1373333,106.988709 L82.1373333,118.107628 C82.1373333,119.343063 83.3717778,120.578498 84.6062222,120.578498 Z" id="Shape"></path>
                <path d="M100.160222,120.578498 C101.641556,120.578498 102.629111,119.59015 102.629111,118.107628 L102.629111,106.988709 C102.629111,105.506186 101.641556,104.517838 100.160222,104.517838 C98.6788889,104.517838 97.6913333,105.506186 97.6913333,106.988709 L97.6913333,118.107628 C97.6913333,119.343063 98.9257778,120.578498 100.160222,120.578498 Z" id="Shape"></path>
                <path d="M115.714222,120.578498 C117.195556,120.578498 118.183111,119.59015 118.183111,118.107628 L118.183111,106.988709 C118.183111,105.506186 117.195556,104.517838 115.714222,104.517838 C114.232889,104.517838 113.245333,105.506186 113.245333,106.988709 L113.245333,118.107628 C113.245333,119.343063 114.479778,120.578498 115.714222,120.578498 Z" id="Shape"></path>
                <path d="M84.6062222,62.2659459 C86.0875556,62.2659459 87.0751111,61.2775976 87.0751111,59.7950751 L87.0751111,48.6761562 C87.0751111,47.1936336 86.0875556,46.2052853 84.6062222,46.2052853 C83.1248889,46.2052853 82.1373333,47.1936336 82.1373333,48.6761562 L82.1373333,59.7950751 C82.1373333,61.2775976 83.3717778,62.2659459 84.6062222,62.2659459 Z" id="Shape"></path>
                <path d="M100.160222,62.2659459 C101.641556,62.2659459 102.629111,61.2775976 102.629111,59.7950751 L102.629111,48.6761562 C102.629111,47.1936336 101.641556,46.2052853 100.160222,46.2052853 C98.6788889,46.2052853 97.6913333,47.1936336 97.6913333,48.6761562 L97.6913333,59.7950751 C97.6913333,61.2775976 98.9257778,62.2659459 100.160222,62.2659459 Z" id="Shape"></path>
                <path d="M115.714222,62.2659459 C117.195556,62.2659459 118.183111,61.2775976 118.183111,59.7950751 L118.183111,48.6761562 C118.183111,47.1936336 117.195556,46.2052853 115.714222,46.2052853 C114.232889,46.2052853 113.245333,47.1936336 113.245333,48.6761562 L113.245333,59.7950751 C113.245333,61.2775976 114.479778,62.2659459 115.714222,62.2659459 Z" id="Shape"></path>
                <path d="M84.6062222,149.734775 C86.0875556,149.734775 87.0751111,148.746426 87.0751111,147.263904 L87.0751111,136.144985 C87.0751111,134.662462 86.0875556,133.674114 84.6062222,133.674114 C83.1248889,133.674114 82.1373333,134.662462 82.1373333,136.144985 L82.1373333,147.263904 C82.1373333,148.499339 83.3717778,149.734775 84.6062222,149.734775 Z" id="Shape"></path>
                <path d="M100.160222,149.734775 C101.641556,149.734775 102.629111,148.746426 102.629111,147.263904 L102.629111,136.144985 C102.629111,134.662462 101.641556,133.674114 100.160222,133.674114 C98.6788889,133.674114 97.6913333,134.662462 97.6913333,136.144985 L97.6913333,147.263904 C97.6913333,148.499339 98.9257778,149.734775 100.160222,149.734775 Z" id="Shape"></path>
                <path d="M115.714222,149.734775 C117.195556,149.734775 118.183111,148.746426 118.183111,147.263904 L118.183111,136.144985 C118.183111,134.662462 117.195556,133.674114 115.714222,133.674114 C114.232889,133.674114 113.245333,134.662462 113.245333,136.144985 L113.245333,147.263904 C113.245333,148.499339 114.479778,149.734775 115.714222,149.734775 Z" id="Shape"></path>
                <path d="M84.6062222,178.891051 C86.0875556,178.891051 87.0751111,177.902703 87.0751111,176.42018 L87.0751111,165.301261 C87.0751111,163.818739 86.0875556,162.83039 84.6062222,162.83039 C83.1248889,162.83039 82.1373333,163.818739 82.1373333,165.301261 L82.1373333,176.42018 C82.1373333,177.655616 83.3717778,178.891051 84.6062222,178.891051 Z" id="Shape"></path>
                <path d="M100.160222,178.891051 C101.641556,178.891051 102.629111,177.902703 102.629111,176.42018 L102.629111,165.301261 C102.629111,163.818739 101.641556,162.83039 100.160222,162.83039 C98.6788889,162.83039 97.6913333,163.818739 97.6913333,165.301261 L97.6913333,176.42018 C97.6913333,177.655616 98.9257778,178.891051 100.160222,178.891051 Z" id="Shape"></path>
                <path d="M115.714222,178.891051 C117.195556,178.891051 118.183111,177.902703 118.183111,176.42018 L118.183111,165.301261 C118.183111,163.818739 117.195556,162.83039 115.714222,162.83039 C114.232889,162.83039 113.245333,163.818739 113.245333,165.301261 L113.245333,176.42018 C113.245333,177.655616 114.479778,178.891051 115.714222,178.891051 Z" id="Shape"></path>
                <path d="M27.0811111,91.4222222 C28.5624444,91.4222222 29.55,90.4338739 29.55,88.9513514 L29.55,77.8324324 C29.55,76.3499099 28.5624444,75.3615616 27.0811111,75.3615616 C25.5997778,75.3615616 24.6122222,76.3499099 24.6122222,77.8324324 L24.6122222,88.9513514 C24.6122222,90.1867868 25.8466667,91.4222222 27.0811111,91.4222222 Z" id="Shape"></path>
                <path d="M42.6351111,91.4222222 C44.1164444,91.4222222 45.104,90.4338739 45.104,88.9513514 L45.104,77.8324324 C45.104,76.3499099 44.1164444,75.3615616 42.6351111,75.3615616 C41.1537778,75.3615616 40.1662222,76.3499099 40.1662222,77.8324324 L40.1662222,88.9513514 C40.1662222,90.1867868 41.4006667,91.4222222 42.6351111,91.4222222 Z" id="Shape"></path>
                <path d="M58.1891111,91.4222222 C59.6704444,91.4222222 60.658,90.4338739 60.658,88.9513514 L60.658,77.8324324 C60.658,76.3499099 59.6704444,75.3615616 58.1891111,75.3615616 C56.7077778,75.3615616 55.7202222,76.3499099 55.7202222,77.8324324 L55.7202222,88.9513514 C55.7202222,90.1867868 56.7077778,91.4222222 58.1891111,91.4222222 Z" id="Shape"></path>
                <path d="M27.0811111,120.578498 C28.5624444,120.578498 29.55,119.59015 29.55,118.107628 L29.55,106.988709 C29.55,105.506186 28.5624444,104.517838 27.0811111,104.517838 C25.5997778,104.517838 24.6122222,105.506186 24.6122222,106.988709 L24.6122222,118.107628 C24.6122222,119.343063 25.8466667,120.578498 27.0811111,120.578498 Z" id="Shape"></path>
                <path d="M42.6351111,120.578498 C44.1164444,120.578498 45.104,119.59015 45.104,118.107628 L45.104,106.988709 C45.104,105.506186 44.1164444,104.517838 42.6351111,104.517838 C41.1537778,104.517838 40.1662222,105.506186 40.1662222,106.988709 L40.1662222,118.107628 C40.1662222,119.343063 41.4006667,120.578498 42.6351111,120.578498 Z" id="Shape"></path>
                <path d="M58.1891111,120.578498 C59.6704444,120.578498 60.658,119.59015 60.658,118.107628 L60.658,106.988709 C60.658,105.506186 59.6704444,104.517838 58.1891111,104.517838 C56.7077778,104.517838 55.7202222,105.506186 55.7202222,106.988709 L55.7202222,118.107628 C55.7202222,119.343063 56.7077778,120.578498 58.1891111,120.578498 Z" id="Shape"></path>
                <path d="M27.0811111,149.734775 C28.5624444,149.734775 29.55,148.746426 29.55,147.263904 L29.55,136.144985 C29.55,134.662462 28.5624444,133.674114 27.0811111,133.674114 C25.5997778,133.674114 24.6122222,134.662462 24.6122222,136.144985 L24.6122222,147.263904 C24.6122222,148.499339 25.8466667,149.734775 27.0811111,149.734775 Z" id="Shape"></path>
                <path d="M42.6351111,149.734775 C44.1164444,149.734775 45.104,148.746426 45.104,147.263904 L45.104,136.144985 C45.104,134.662462 44.1164444,133.674114 42.6351111,133.674114 C41.1537778,133.674114 40.1662222,134.662462 40.1662222,136.144985 L40.1662222,147.263904 C40.1662222,148.499339 41.4006667,149.734775 42.6351111,149.734775 Z" id="Shape"></path>
                <path d="M58.1891111,149.734775 C59.6704444,149.734775 60.658,148.746426 60.658,147.263904 L60.658,136.144985 C60.658,134.662462 59.6704444,133.674114 58.1891111,133.674114 C56.7077778,133.674114 55.7202222,134.662462 55.7202222,136.144985 L55.7202222,147.263904 C55.7202222,148.499339 56.7077778,149.734775 58.1891111,149.734775 Z" id="Shape"></path>
                <path d="M27.0811111,178.891051 C28.5624444,178.891051 29.55,177.902703 29.55,176.42018 L29.55,165.301261 C29.55,163.818739 28.5624444,162.83039 27.0811111,162.83039 C25.5997778,162.83039 24.6122222,163.818739 24.6122222,165.301261 L24.6122222,176.42018 C24.6122222,177.655616 25.8466667,178.891051 27.0811111,178.891051 Z" id="Shape"></path>
                <path d="M42.6351111,178.891051 C44.1164444,178.891051 45.104,177.902703 45.104,176.42018 L45.104,165.301261 C45.104,163.818739 44.1164444,162.83039 42.6351111,162.83039 C41.1537778,162.83039 40.1662222,163.818739 40.1662222,165.301261 L40.1662222,176.42018 C40.1662222,177.655616 41.4006667,178.891051 42.6351111,178.891051 Z" id="Shape"></path>
                <path d="M58.1891111,178.891051 C59.6704444,178.891051 60.658,177.902703 60.658,176.42018 L60.658,165.301261 C60.658,163.818739 59.6704444,162.83039 58.1891111,162.83039 C56.7077778,162.83039 55.7202222,163.818739 55.7202222,165.301261 L55.7202222,176.42018 C55.7202222,177.655616 56.7077778,178.891051 58.1891111,178.891051 Z" id="Shape"></path>
            </g>
        </g>
    </g>
</svg>